<svg width="216" height="52" viewBox="0 0 216 52" fill="none" xmlns="http://www.w3.org/2000/svg">
<path d="M76.9355 18.3369C76.9355 17.6126 76.7484 17.0674 76.374 16.7012C76.0078 16.3268 75.3364 15.9403 74.3599 15.5415C72.5776 14.866 71.2959 14.0767 70.5146 13.1733C69.7334 12.2619 69.3428 11.1877 69.3428 9.95068C69.3428 8.45329 69.8717 7.25293 70.9297 6.34961C71.9958 5.43815 73.3467 4.98242 74.9824 4.98242C76.0729 4.98242 77.0454 5.21436 77.8999 5.67822C78.7544 6.13395 79.4095 6.78092 79.8652 7.61914C80.3291 8.45736 80.561 9.40951 80.561 10.4756H76.9844C76.9844 9.64551 76.8053 9.01481 76.4473 8.5835C76.0973 8.14404 75.5887 7.92432 74.9214 7.92432C74.2948 7.92432 73.8065 8.11149 73.4565 8.48584C73.1066 8.85205 72.9316 9.34847 72.9316 9.9751C72.9316 10.4634 73.127 10.9069 73.5176 11.3057C73.9082 11.6963 74.5999 12.1032 75.5928 12.5264C77.3262 13.153 78.5835 13.922 79.3647 14.8335C80.1541 15.745 80.5488 16.9046 80.5488 18.3125C80.5488 19.8587 80.0565 21.0672 79.0718 21.938C78.0871 22.8088 76.7484 23.2441 75.0557 23.2441C73.9082 23.2441 72.8625 23.0081 71.9185 22.5361C70.9744 22.0641 70.2339 21.3887 69.6968 20.5098C69.1678 19.6309 68.9033 18.5933 68.9033 17.397H72.5044C72.5044 18.4224 72.7038 19.167 73.1025 19.6309C73.5013 20.0947 74.1523 20.3267 75.0557 20.3267C76.3089 20.3267 76.9355 19.6634 76.9355 18.3369ZM88.0928 23.2441C86.3187 23.2441 84.9352 22.7152 83.9424 21.6572C82.9495 20.5993 82.4531 19.0856 82.4531 17.1162V16.0664C82.4531 13.9831 82.9089 12.3758 83.8203 11.2446C84.7318 10.1134 86.0379 9.54785 87.7388 9.54785C89.3989 9.54785 90.6481 10.0809 91.4863 11.147C92.3245 12.2049 92.7518 13.7756 92.7681 15.8589V17.5557H85.8955C85.9443 18.5322 86.16 19.2484 86.5425 19.7041C86.925 20.1517 87.515 20.3755 88.3125 20.3755C89.4681 20.3755 90.4325 19.9808 91.2056 19.1914L92.5605 21.2788C92.1374 21.8647 91.5229 22.3408 90.7173 22.707C89.9116 23.0651 89.0368 23.2441 88.0928 23.2441ZM85.9199 15.1387H89.3745V14.8213C89.3582 14.0319 89.228 13.4338 88.9839 13.0269C88.7397 12.62 88.3166 12.4165 87.7144 12.4165C87.1121 12.4165 86.6727 12.6322 86.396 13.0635C86.1274 13.4948 85.9688 14.1865 85.9199 15.1387ZM101.24 13.1245L100.092 13.0269C99.1483 13.0269 98.5094 13.4419 98.1758 14.272V23H94.709V9.79199H97.9683L98.0659 11.2202C98.6112 10.1053 99.3639 9.54785 100.324 9.54785C100.715 9.54785 101.032 9.60075 101.276 9.70654L101.24 13.1245ZM107.575 18.1172L109.248 9.79199H112.849L109.223 23H105.927L102.29 9.79199H105.903L107.575 18.1172ZM118.098 23H114.631V9.79199H118.098V23ZM114.472 6.37402C114.472 5.83691 114.643 5.39746 114.985 5.05566C115.327 4.71387 115.782 4.54297 116.352 4.54297C116.922 4.54297 117.377 4.71387 117.719 5.05566C118.061 5.39746 118.232 5.83691 118.232 6.37402C118.232 6.90299 118.061 7.34245 117.719 7.69238C117.386 8.04232 116.93 8.21729 116.352 8.21729C115.774 8.21729 115.314 8.04232 114.973 7.69238C114.639 7.34245 114.472 6.90299 114.472 6.37402ZM125.544 20.3755C126.545 20.3755 127.054 19.7244 127.07 18.4224H130.317C130.301 19.8628 129.857 21.0265 128.986 21.9136C128.116 22.8006 126.993 23.2441 125.617 23.2441C123.916 23.2441 122.618 22.7152 121.723 21.6572C120.828 20.5993 120.372 19.0409 120.356 16.9819V15.9321C120.356 13.8569 120.795 12.2741 121.674 11.1836C122.561 10.0931 123.868 9.54785 125.593 9.54785C127.049 9.54785 128.197 9.99951 129.035 10.9028C129.873 11.798 130.301 13.0716 130.317 14.7236H127.07C127.062 13.9831 126.94 13.4134 126.704 13.0146C126.468 12.6159 126.077 12.4165 125.532 12.4165C124.93 12.4165 124.498 12.6322 124.238 13.0635C123.977 13.4867 123.839 14.3127 123.823 15.5415V16.8843C123.823 17.9585 123.876 18.7113 123.981 19.1426C124.087 19.5658 124.262 19.8791 124.506 20.0825C124.75 20.2778 125.096 20.3755 125.544 20.3755ZM137.604 23.2441C135.83 23.2441 134.447 22.7152 133.454 21.6572C132.461 20.5993 131.965 19.0856 131.965 17.1162V16.0664C131.965 13.9831 132.421 12.3758 133.332 11.2446C134.243 10.1134 135.55 9.54785 137.25 9.54785C138.911 9.54785 140.16 10.0809 140.998 11.147C141.836 12.2049 142.264 13.7756 142.28 15.8589V17.5557H135.407C135.456 18.5322 135.672 19.2484 136.054 19.7041C136.437 20.1517 137.027 20.3755 137.824 20.3755C138.98 20.3755 139.944 19.9808 140.717 19.1914L142.072 21.2788C141.649 21.8647 141.035 22.3408 140.229 22.707C139.423 23.0651 138.549 23.2441 137.604 23.2441ZM135.432 15.1387H138.886V14.8213C138.87 14.0319 138.74 13.4338 138.496 13.0269C138.251 12.62 137.828 12.4165 137.226 12.4165C136.624 12.4165 136.184 12.6322 135.908 13.0635C135.639 13.4948 135.48 14.1865 135.432 15.1387ZM150.166 23V5.22656H154.865C156.94 5.22656 158.592 5.88574 159.821 7.2041C161.058 8.52246 161.689 10.3291 161.713 12.624V15.5049C161.713 17.8405 161.095 19.6756 159.858 21.0103C158.629 22.3368 156.932 23 154.768 23H150.166ZM153.754 8.21729V20.0215H154.829C156.025 20.0215 156.867 19.7082 157.355 19.0815C157.844 18.4468 158.1 17.3563 158.125 15.8101V12.7217C158.125 11.0615 157.893 9.90592 157.429 9.25488C156.965 8.5957 156.175 8.24984 155.061 8.21729H153.754ZM169.465 23.2441C167.691 23.2441 166.307 22.7152 165.314 21.6572C164.322 20.5993 163.825 19.0856 163.825 17.1162V16.0664C163.825 13.9831 164.281 12.3758 165.192 11.2446C166.104 10.1134 167.41 9.54785 169.111 9.54785C170.771 9.54785 172.02 10.0809 172.858 11.147C173.697 12.2049 174.124 13.7756 174.14 15.8589V17.5557H167.268C167.316 18.5322 167.532 19.2484 167.915 19.7041C168.297 20.1517 168.887 20.3755 169.685 20.3755C170.84 20.3755 171.805 19.9808 172.578 19.1914L173.933 21.2788C173.509 21.8647 172.895 22.3408 172.089 22.707C171.284 23.0651 170.409 23.2441 169.465 23.2441ZM167.292 15.1387H170.747V14.8213C170.73 14.0319 170.6 13.4338 170.356 13.0269C170.112 12.62 169.689 12.4165 169.086 12.4165C168.484 12.4165 168.045 12.6322 167.768 13.0635C167.5 13.4948 167.341 14.1865 167.292 15.1387ZM180.256 18.1172L181.928 9.79199H185.529L181.904 23H178.608L174.97 9.79199H178.583L180.256 18.1172ZM190.778 23H187.312V9.79199H190.778V23ZM187.153 6.37402C187.153 5.83691 187.324 5.39746 187.666 5.05566C188.007 4.71387 188.463 4.54297 189.033 4.54297C189.602 4.54297 190.058 4.71387 190.4 5.05566C190.742 5.39746 190.913 5.83691 190.913 6.37402C190.913 6.90299 190.742 7.34245 190.4 7.69238C190.066 8.04232 189.611 8.21729 189.033 8.21729C188.455 8.21729 187.995 8.04232 187.653 7.69238C187.32 7.34245 187.153 6.90299 187.153 6.37402ZM198.225 20.3755C199.226 20.3755 199.734 19.7244 199.75 18.4224H202.998C202.981 19.8628 202.538 21.0265 201.667 21.9136C200.796 22.8006 199.673 23.2441 198.298 23.2441C196.597 23.2441 195.299 22.7152 194.404 21.6572C193.509 20.5993 193.053 19.0409 193.037 16.9819V15.9321C193.037 13.8569 193.476 12.2741 194.355 11.1836C195.242 10.0931 196.548 9.54785 198.273 9.54785C199.73 9.54785 200.878 9.99951 201.716 10.9028C202.554 11.798 202.981 13.0716 202.998 14.7236H199.75C199.742 13.9831 199.62 13.4134 199.384 13.0146C199.148 12.6159 198.758 12.4165 198.212 12.4165C197.61 12.4165 197.179 12.6322 196.918 13.0635C196.658 13.4867 196.52 14.3127 196.503 15.5415V16.8843C196.503 17.9585 196.556 18.7113 196.662 19.1426C196.768 19.5658 196.943 19.8791 197.187 20.0825C197.431 20.2778 197.777 20.3755 198.225 20.3755ZM210.285 23.2441C208.511 23.2441 207.128 22.7152 206.135 21.6572C205.142 20.5993 204.646 19.0856 204.646 17.1162V16.0664C204.646 13.9831 205.101 12.3758 206.013 11.2446C206.924 10.1134 208.23 9.54785 209.931 9.54785C211.591 9.54785 212.84 10.0809 213.679 11.147C214.517 12.2049 214.944 13.7756 214.96 15.8589V17.5557H208.088C208.137 18.5322 208.352 19.2484 208.735 19.7041C209.117 20.1517 209.707 20.3755 210.505 20.3755C211.66 20.3755 212.625 19.9808 213.398 19.1914L214.753 21.2788C214.33 21.8647 213.715 22.3408 212.91 22.707C212.104 23.0651 211.229 23.2441 210.285 23.2441ZM208.112 15.1387H211.567V14.8213C211.551 14.0319 211.42 13.4338 211.176 13.0269C210.932 12.62 210.509 12.4165 209.907 12.4165C209.305 12.4165 208.865 12.6322 208.588 13.0635C208.32 13.4948 208.161 14.1865 208.112 15.1387Z" fill="#203C42"/>
<path d="M91.9473 38.9609L93.2363 34.6602H94.7539L92.2344 41.9609C91.8477 43.0273 91.1914 43.5605 90.2656 43.5605C90.0586 43.5605 89.8301 43.5254 89.5801 43.4551V42.3535L89.8496 42.3711C90.209 42.3711 90.4785 42.3047 90.6582 42.1719C90.8418 42.043 90.9863 41.8242 91.0918 41.5156L91.2969 40.9707L89.0703 34.6602H90.6055L91.9473 38.9609ZM99.3418 39.248L101.217 34.6602H102.998V41H101.574V36.8047L99.8281 41H98.8613L97.1094 36.7812V41H95.6855V34.6602H97.4785L99.3418 39.248ZM109.971 41H108.547V38.4395H106.08V41H104.656V34.6602H106.08V37.3027H108.547V34.6602H109.971V41ZM113.023 36.6758H114.418C114.938 36.6758 115.391 36.7656 115.777 36.9453C116.164 37.125 116.457 37.377 116.656 37.7012C116.859 38.0254 116.961 38.4023 116.961 38.832C116.961 39.4844 116.73 40.0078 116.27 40.4023C115.809 40.7969 115.195 40.9961 114.43 41H111.6V34.6602H113.023V36.6758ZM119.439 41H118.016V34.6602H119.439V41ZM113.023 37.8184V39.8633H114.412C114.76 39.8633 115.033 39.7773 115.232 39.6055C115.436 39.4297 115.537 39.1816 115.537 38.8613C115.537 38.541 115.438 38.2891 115.238 38.1055C115.043 37.918 114.777 37.8223 114.441 37.8184H113.023ZM123.939 41.1172C123.037 41.1172 122.305 40.834 121.742 40.2676C121.184 39.6973 120.904 38.9395 120.904 37.9941V37.8184C120.904 37.1855 121.025 36.6211 121.268 36.125C121.514 35.625 121.857 35.2363 122.299 34.959C122.74 34.6816 123.232 34.543 123.775 34.543C124.639 34.543 125.305 34.8184 125.773 35.3691C126.246 35.9199 126.482 36.6992 126.482 37.707V38.2812H122.34C122.383 38.8047 122.557 39.2188 122.861 39.5234C123.17 39.8281 123.557 39.9805 124.021 39.9805C124.674 39.9805 125.205 39.7168 125.615 39.1895L126.383 39.9219C126.129 40.3008 125.789 40.5957 125.363 40.8066C124.941 41.0137 124.467 41.1172 123.939 41.1172ZM123.77 35.6855C123.379 35.6855 123.062 35.8223 122.82 36.0957C122.582 36.3691 122.43 36.75 122.363 37.2383H125.076V37.1328C125.045 36.6562 124.918 36.2969 124.695 36.0547C124.473 35.8086 124.164 35.6855 123.77 35.6855ZM135.57 35.791H133.514V41H132.09V35.791H130.057V34.6602H135.57V35.791ZM138.939 41.1172C138.037 41.1172 137.305 40.834 136.742 40.2676C136.184 39.6973 135.904 38.9395 135.904 37.9941V37.8184C135.904 37.1855 136.025 36.6211 136.268 36.125C136.514 35.625 136.857 35.2363 137.299 34.959C137.74 34.6816 138.232 34.543 138.775 34.543C139.639 34.543 140.305 34.8184 140.773 35.3691C141.246 35.9199 141.482 36.6992 141.482 37.707V38.2812H137.34C137.383 38.8047 137.557 39.2188 137.861 39.5234C138.17 39.8281 138.557 39.9805 139.021 39.9805C139.674 39.9805 140.205 39.7168 140.615 39.1895L141.383 39.9219C141.129 40.3008 140.789 40.5957 140.363 40.8066C139.941 41.0137 139.467 41.1172 138.939 41.1172ZM138.77 35.6855C138.379 35.6855 138.062 35.8223 137.82 36.0957C137.582 36.3691 137.43 36.75 137.363 37.2383H140.076V37.1328C140.045 36.6562 139.918 36.2969 139.695 36.0547C139.473 35.8086 139.164 35.6855 138.77 35.6855ZM144.869 36.7461L146.076 34.6602H147.658L145.719 37.7832L147.723 41H146.152L144.887 38.832L143.627 41H142.045L144.049 37.7832L142.115 34.6602H143.686L144.869 36.7461ZM153.998 41H152.574V38.4395H150.107V41H148.684V34.6602H150.107V37.3027H152.574V34.6602H153.998V41ZM155.252 37.7715C155.252 37.1504 155.375 36.5918 155.621 36.0957C155.867 35.5957 156.213 35.2129 156.658 34.9473C157.104 34.6777 157.615 34.543 158.193 34.543C159.049 34.543 159.742 34.8184 160.273 35.3691C160.809 35.9199 161.098 36.6504 161.141 37.5605L161.146 37.8945C161.146 38.5195 161.025 39.0781 160.783 39.5703C160.545 40.0625 160.201 40.4434 159.752 40.7129C159.307 40.9824 158.791 41.1172 158.205 41.1172C157.311 41.1172 156.594 40.8203 156.055 40.2266C155.52 39.6289 155.252 38.834 155.252 37.8418V37.7715ZM156.676 37.8945C156.676 38.5469 156.811 39.0586 157.08 39.4297C157.35 39.7969 157.725 39.9805 158.205 39.9805C158.686 39.9805 159.059 39.793 159.324 39.418C159.594 39.043 159.729 38.4941 159.729 37.7715C159.729 37.1309 159.59 36.623 159.312 36.248C159.039 35.873 158.666 35.6855 158.193 35.6855C157.729 35.6855 157.359 35.8711 157.086 36.2422C156.812 36.6094 156.676 37.1602 156.676 37.8945ZM167.645 34.6602V41H166.221V35.8086H164.428L164.311 38.0176C164.236 39.0801 164.031 39.8438 163.695 40.3086C163.363 40.7695 162.854 41 162.166 41H161.727L161.721 39.8164L162.014 39.7871C162.326 39.7441 162.553 39.5547 162.693 39.2188C162.838 38.8789 162.93 38.2617 162.969 37.3672L163.086 34.6602H167.645ZM168.893 37.7715C168.893 37.1504 169.016 36.5918 169.262 36.0957C169.508 35.5957 169.854 35.2129 170.299 34.9473C170.744 34.6777 171.256 34.543 171.834 34.543C172.689 34.543 173.383 34.8184 173.914 35.3691C174.449 35.9199 174.738 36.6504 174.781 37.5605L174.787 37.8945C174.787 38.5195 174.666 39.0781 174.424 39.5703C174.186 40.0625 173.842 40.4434 173.393 40.7129C172.947 40.9824 172.432 41.1172 171.846 41.1172C170.951 41.1172 170.234 40.8203 169.695 40.2266C169.16 39.6289 168.893 38.834 168.893 37.8418V37.7715ZM170.316 37.8945C170.316 38.5469 170.451 39.0586 170.721 39.4297C170.99 39.7969 171.365 39.9805 171.846 39.9805C172.326 39.9805 172.699 39.793 172.965 39.418C173.234 39.043 173.369 38.4941 173.369 37.7715C173.369 37.1309 173.23 36.623 172.953 36.248C172.68 35.873 172.307 35.6855 171.834 35.6855C171.369 35.6855 171 35.8711 170.727 36.2422C170.453 36.6094 170.316 37.1602 170.316 37.8945ZM180.213 35.8086H177.459V41H176.041V34.6602H180.213V35.8086ZM184.977 34.6602H186.395V41H184.977V36.7695L182.492 41H181.074V34.6602H182.492V38.8906L184.977 34.6602ZM191.867 34.6602H193.285V41H191.867V36.7695L189.383 41H187.965V34.6602H189.383V38.8906L191.867 34.6602Z" fill="#788891"/>
<path d="M32.0668 13.8665C33.1952 13.8665 34.1485 14.5936 34.5073 15.5998H43.4929C43.8517 14.5936 44.805 13.8665 45.9334 13.8665C47.3669 13.8665 48.5334 15.033 48.5334 16.4664C48.5334 17.8999 47.3669 19.0664 45.9334 19.0664C44.805 19.0664 43.8517 18.3392 43.4929 17.3331H34.5064C34.1476 18.3392 33.1943 19.0664 32.0659 19.0664C30.6324 19.0664 29.4659 17.8999 29.4659 16.4664C29.4659 15.033 30.6333 13.8665 32.0668 13.8665ZM45.9334 17.3331C46.411 17.3331 46.8001 16.9448 46.8001 16.4664C46.8001 15.988 46.411 15.5998 45.9334 15.5998C45.4559 15.5998 45.0668 15.988 45.0668 16.4664C45.0668 16.9448 45.4559 17.3331 45.9334 17.3331ZM32.0668 17.3331C32.5443 17.3331 32.9334 16.9448 32.9334 16.4664C32.9334 15.988 32.5443 15.5998 32.0668 15.5998C31.5892 15.5998 31.2001 15.988 31.2001 16.4664C31.2001 16.9448 31.5892 17.3331 32.0668 17.3331Z" fill="#00B2FF"/>
<path d="M25.1333 19.2259V13.8665C25.1333 13.636 25.2243 13.4158 25.3872 13.2538L28.8539 9.78716C29.0159 9.62423 29.2369 9.53323 29.4666 9.53323H32.2261C32.5849 8.52705 33.5382 7.79993 34.6666 7.79993C36.1001 7.79993 37.2666 8.96644 37.2666 10.3999C37.2666 11.8333 36.1001 12.9998 34.6666 12.9998C33.5382 12.9998 32.5849 12.2727 32.2261 11.2665H29.8254L26.8666 14.2253V19.2259C27.8728 19.5847 28.5999 20.538 28.5999 21.6664C28.5999 23.0998 27.4334 24.2663 25.9999 24.2663C24.5665 24.2663 23.3999 23.0998 23.3999 21.6664C23.3999 20.538 24.1271 19.5847 25.1333 19.2259ZM34.6666 11.2665C35.1441 11.2665 35.5333 10.8783 35.5333 10.3999C35.5333 9.92149 35.1441 9.53323 34.6666 9.53323C34.1891 9.53323 33.7999 9.92149 33.7999 10.3999C33.7999 10.8783 34.1891 11.2665 34.6666 11.2665ZM25.9999 22.533C26.4775 22.533 26.8666 22.1448 26.8666 21.6664C26.8666 21.188 26.4775 20.7997 25.9999 20.7997C25.5224 20.7997 25.1333 21.188 25.1333 21.6664C25.1333 22.1448 25.5224 22.533 25.9999 22.533Z" fill="#00B2FF"/>
<path d="M9.53333 22.533C9.93373 22.533 10.3081 22.6309 10.647 22.7938L12.1333 21.3075V12.9998C12.1333 12.7693 12.2243 12.5491 12.3873 12.3871L21.0609 3.7136C20.8979 3.37474 20.8 3.00035 20.8 2.59996C20.8 1.16651 21.9665 0 23.4 0C24.8335 0 26 1.16651 26 2.59996C26 4.0334 24.8335 5.19991 23.4 5.19991C22.9996 5.19991 22.6252 5.10198 22.2863 4.93905L13.8667 13.3586V21.6663C13.8667 21.8968 13.7757 22.117 13.6127 22.279L11.8725 24.0193C12.0354 24.3581 12.1333 24.7325 12.1333 25.1329C12.1333 26.5664 10.9668 27.7329 9.53333 27.7329C8.09986 27.7329 6.93333 26.5664 6.93333 25.1329C6.93333 23.6995 8.09986 22.533 9.53333 22.533ZM23.4 3.46661C23.8775 3.46661 24.2667 3.07835 24.2667 2.59996C24.2667 2.12156 23.8775 1.7333 23.4 1.7333C22.9225 1.7333 22.5333 2.12156 22.5333 2.59996C22.5333 3.07835 22.9225 3.46661 23.4 3.46661ZM9.53333 25.9996C10.0109 25.9996 10.4 25.6113 10.4 25.1329C10.4 24.6545 10.0109 24.2663 9.53333 24.2663C9.0558 24.2663 8.66667 24.6545 8.66667 25.1329C8.66667 25.6113 9.0558 25.9996 9.53333 25.9996Z" fill="#00B2FF"/>
<path d="M1.73328 12.2926V8.66652C1.73328 8.43599 1.82428 8.21586 1.98722 8.0538L8.05388 1.98723C8.21595 1.8243 8.43695 1.7333 8.66662 1.7333H13.1594C13.5182 0.727121 14.4716 0 15.6 0C17.0334 0 18.2 1.16651 18.2 2.59996C18.2 4.0334 17.0334 5.19991 15.6 5.19991C14.4716 5.19991 13.5182 4.47279 13.1594 3.46661H9.02542L3.46662 9.02532V12.2926C4.47282 12.6514 5.19995 13.6047 5.19995 14.7331C5.19995 16.1665 4.03342 17.333 2.59995 17.333C1.16648 17.333 -4.95911e-05 16.1665 -4.95911e-05 14.7331C-4.95911e-05 13.6047 0.727085 12.6514 1.73328 12.2926ZM15.6 3.46661C16.0775 3.46661 16.4666 3.07835 16.4666 2.59996C16.4666 2.12156 16.0775 1.7333 15.6 1.7333C15.1224 1.7333 14.7333 2.12156 14.7333 2.59996C14.7333 3.07835 15.1224 3.46661 15.6 3.46661ZM2.59995 15.5997C3.07748 15.5997 3.46662 15.2115 3.46662 14.7331C3.46662 14.2547 3.07748 13.8664 2.59995 13.8664C2.12242 13.8664 1.73328 14.2547 1.73328 14.7331C1.73328 15.2115 2.12242 15.5997 2.59995 15.5997Z" fill="#00B2FF"/>
<path d="M13.8658 46.9595V34.5066C12.8604 34.1478 12.1333 33.1945 12.1333 32.0661C12.1333 30.6327 13.2998 29.4661 14.7333 29.4661C15.8617 29.4661 16.815 30.1933 17.1738 31.1995H26.1594C26.5182 30.1933 27.4716 29.4661 28.6 29.4661C29.7284 29.4661 30.6817 30.1933 31.0405 31.1995H36.0412L39.2608 27.9798C39.0979 27.641 39 27.2666 39 26.8662C39 25.4327 40.1665 24.2662 41.6 24.2662C43.0334 24.2662 44.2 25.4327 44.2 26.8662C44.2 28.2996 43.0334 29.4661 41.6 29.4661C41.1996 29.4661 40.8252 29.3682 40.4863 29.2053L37.0127 32.6788C36.8506 32.8418 36.6296 32.9328 36.4 32.9328H31.0405C30.6817 33.9389 29.7284 34.6661 28.6 34.6661C27.4716 34.6661 26.5182 33.9389 26.1594 32.9328H17.173C16.9112 33.6668 16.3332 34.2449 15.5991 34.5066V46.9595C16.6053 47.3183 17.3324 48.2716 17.3324 49.4C17.3324 50.8335 16.1659 52 14.7324 52C13.299 52 12.1324 50.8335 12.1324 49.4C12.1324 48.2716 12.8596 47.3183 13.8658 46.9595ZM41.6 27.7328C42.0775 27.7328 42.4666 27.3446 42.4666 26.8662C42.4666 26.3878 42.0775 25.9995 41.6 25.9995C41.1224 25.9995 40.7333 26.3878 40.7333 26.8662C40.7333 27.3446 41.1224 27.7328 41.6 27.7328ZM28.6 32.9328C29.0775 32.9328 29.4666 32.5445 29.4666 32.0661C29.4666 31.5877 29.0775 31.1995 28.6 31.1995C28.1224 31.1995 27.7333 31.5877 27.7333 32.0661C27.7333 32.5445 28.1224 32.9328 28.6 32.9328ZM14.7333 50.2658C15.2108 50.2658 15.6 49.8775 15.6 49.3991C15.6 48.9208 15.2108 48.5325 14.7333 48.5325C14.2558 48.5325 13.8666 48.9208 13.8666 49.3991C13.8666 49.8775 14.2558 50.2658 14.7333 50.2658ZM14.7333 32.9328C15.2108 32.9328 15.6 32.5445 15.6 32.0661C15.6 31.5877 15.2108 31.1995 14.7333 31.1995C14.2558 31.1995 13.8666 31.5877 13.8666 32.0661C13.8666 32.5445 14.2558 32.9328 14.7333 32.9328Z" fill="#00B2FF"/>
<path d="M18.2 17.4925V14.7331C18.2 14.5026 18.291 14.2824 18.4539 14.1204L28.8609 3.7136C28.6979 3.37474 28.6 3.00035 28.6 2.59996C28.6 1.16651 29.7665 0 31.2 0C32.3284 0 33.2817 0.727121 33.6405 1.7333H37.2667C37.7451 1.7333 38.1333 2.1207 38.1333 2.59996V4.84112L41.353 8.06073C41.6919 7.8978 42.0663 7.79987 42.4667 7.79987C43.9001 7.79987 45.0667 8.96638 45.0667 10.3998C45.0667 11.8333 43.9001 12.9998 42.4667 12.9998C41.0332 12.9998 39.8667 11.8333 39.8667 10.3998C39.8667 9.99943 39.9646 9.62504 40.1275 9.28618L36.6539 5.81264C36.491 5.65057 36.4 5.43044 36.4 5.19991V3.46661H33.6405C33.2817 4.47279 32.3284 5.19991 31.2 5.19991C30.7996 5.19991 30.4252 5.10198 30.0863 4.93905L19.9333 15.0919V17.4925C20.9395 17.8513 21.6667 18.8046 21.6667 19.933C21.6667 21.3664 20.5001 22.533 19.0667 22.533C17.6332 22.533 16.4667 21.3664 16.4667 19.933C16.4667 18.8046 17.1938 17.8513 18.2 17.4925ZM42.4667 11.2665C42.9442 11.2665 43.3333 10.8782 43.3333 10.3998C43.3333 9.92143 42.9442 9.53317 42.4667 9.53317C41.9891 9.53317 41.6 9.92143 41.6 10.3998C41.6 10.8782 41.9891 11.2665 42.4667 11.2665ZM31.2 3.46661C31.6775 3.46661 32.0667 3.07835 32.0667 2.59996C32.0667 2.12156 31.6775 1.7333 31.2 1.7333C30.7225 1.7333 30.3333 2.12156 30.3333 2.59996C30.3333 3.07835 30.7225 3.46661 31.2 3.46661ZM19.0667 20.7997C19.5442 20.7997 19.9333 20.4114 19.9333 19.933C19.9333 19.4546 19.5442 19.0663 19.0667 19.0663C18.5891 19.0663 18.2 19.4546 18.2 19.933C18.2 20.4114 18.5891 20.7997 19.0667 20.7997Z" fill="#00B2FF"/>
<path d="M20.8 24.2663C21.9284 24.2663 22.8817 24.9934 23.2405 25.9996H33.4412L38.3873 21.0536C38.5493 20.8906 38.7703 20.7997 39 20.7997H48.1745L50.2667 18.7076V11.6253L43.5803 4.93905C43.2415 5.10198 42.8671 5.19991 42.4667 5.19991C41.0332 5.19991 39.8667 4.0334 39.8667 2.59996C39.8667 1.16651 41.0332 0 42.4667 0C43.9001 0 45.0667 1.16651 45.0667 2.59996C45.0667 3.00035 44.9687 3.37474 44.8058 3.7136L51.7461 10.6538C51.909 10.8158 52 11.0359 52 11.2665V19.0663C52 19.2969 51.909 19.517 51.7461 19.6791L49.1461 22.279C48.984 22.442 48.763 22.533 48.5333 22.533H39.3588L34.4127 27.4789C34.2507 27.6419 34.0297 27.7329 33.8 27.7329H23.2405C22.8817 28.7391 21.9284 29.4662 20.8 29.4662C19.3665 29.4662 18.2 28.2997 18.2 26.8662C18.2 25.4328 19.3665 24.2663 20.8 24.2663ZM42.4667 1.7333C41.9891 1.7333 41.6 2.12156 41.6 2.59996C41.6 3.07835 41.9891 3.46661 42.4667 3.46661C42.9442 3.46661 43.3333 3.07835 43.3333 2.59996C43.3333 2.12156 42.9442 1.7333 42.4667 1.7333ZM20.8 27.7329C21.2775 27.7329 21.6667 27.3446 21.6667 26.8662C21.6667 26.3878 21.2775 25.9996 20.8 25.9996C20.3225 25.9996 19.9333 26.3878 19.9333 26.8662C19.9333 27.3446 20.3225 27.7329 20.8 27.7329Z" fill="#00B2FF"/>
<path d="M2.59997 20.7997C3.00037 20.7997 3.37477 20.8976 3.71363 21.0606L6.9333 17.841V12.8404C5.9271 12.4816 5.19997 11.5283 5.19997 10.3999C5.19997 8.96644 6.3665 7.79993 7.79997 7.79993C9.23343 7.79993 10.4 8.96644 10.4 10.3999C10.4 11.5283 9.67283 12.4816 8.66663 12.8404V18.1998C8.66663 18.4303 8.57563 18.6504 8.4127 18.8125L4.9391 22.286C5.10204 22.6249 5.19997 22.9993 5.19997 23.3997C5.19997 24.528 4.47283 25.4814 3.46663 25.8402V26.5075L10.146 33.1868C10.309 33.3488 10.4 33.569 10.4 33.7995V34.8256C11.4062 35.1844 12.1333 36.1377 12.1333 37.2661C12.1333 38.3945 11.4062 39.3478 10.4 39.7066V41.7597C11.4062 42.1185 12.1333 43.0718 12.1333 44.2002C12.1333 45.6336 10.9668 46.8001 9.5333 46.8001C8.09983 46.8001 6.9333 45.6336 6.9333 44.2002C6.9333 43.0718 7.66043 42.1185 8.66663 41.7597V39.7066C7.66043 39.3478 6.9333 38.3945 6.9333 37.2661C6.9333 36.1377 7.66043 35.1844 8.66663 34.8256V34.1583L1.98723 27.479C1.8243 27.3169 1.7333 27.0968 1.7333 26.8663V25.8402C0.7271 25.4814 -3.24249e-05 24.528 -3.24249e-05 23.3997C-3.24249e-05 21.9662 1.1665 20.7997 2.59997 20.7997ZM7.79997 11.2665C8.2775 11.2665 8.66663 10.8783 8.66663 10.3999C8.66663 9.92149 8.2775 9.53323 7.79997 9.53323C7.32243 9.53323 6.9333 9.92149 6.9333 10.3999C6.9333 10.8783 7.32243 11.2665 7.79997 11.2665ZM9.5333 45.066C10.0108 45.066 10.4 44.6777 10.4 44.1993C10.4 43.7209 10.0108 43.3327 9.5333 43.3327C9.05577 43.3327 8.66663 43.7209 8.66663 44.1993C8.66663 44.6777 9.05577 45.066 9.5333 45.066ZM9.5333 38.1328C10.0108 38.1328 10.4 37.7445 10.4 37.2661C10.4 36.7877 10.0108 36.3995 9.5333 36.3995C9.05577 36.3995 8.66663 36.7877 8.66663 37.2661C8.66663 37.7445 9.05577 38.1328 9.5333 38.1328ZM2.59997 24.2663C3.0775 24.2663 3.46663 23.8781 3.46663 23.3997C3.46663 22.9213 3.0775 22.533 2.59997 22.533C2.12243 22.533 1.7333 22.9213 1.7333 23.3997C1.7333 23.8781 2.12243 24.2663 2.59997 24.2663Z" fill="#00B2FF"/>
</svg>
